<?xml version="1.0" encoding="UTF-8"?>
<svg width="20px" height="20px" viewBox="0 0 20 17" version="1.1" xmlns="http://www.w3.org/2000/svg" xmlns:xlink="http://www.w3.org/1999/xlink">
    <title>bestek</title>
    <g id="Symbols" stroke="none" stroke-width="1" fill="none" fill-rule="evenodd">
        <g id="Elements/Nav/Desktop" transform="translate(0.000000, -4.000000)" fill="#000000" fill-rule="nonzero">
            <g id="Group" transform="translate(0.000000, 2.000000)">
                <g id="bestek" transform="translate(9.864581, 10.864581) rotate(-90.000000) translate(-9.864581, -10.864581) translate(1.864581, 1.000000)">
                    <path d="M8.81971466,0.15977174 C8.81971466,-0.379787274 6.47470817,0.429551248 6.22568093,2.85756681 C5.9766537,5.26483011 5.81063554,6.61372764 5.72762646,7.44381843 C5.64461738,8.27390922 6.22568093,9.04174321 7.09727626,9.16625682 L7.45006485,9.20776136 L6.93125811,19.0858418 C6.91050584,19.4386304 7.20103761,19.7291621 7.53307393,19.7291621 L8.75745785,19.7291621 C9.11024643,19.7291621 9.38002594,19.4386304 9.38002594,19.0858418 L8.79896239,8.19090015 L8.81971466,0.15977174 Z" id="Path"></path>
                    <path d="M3.92217899,4.7875279 L3.81841764,0.15977174 C3.81841764,0.0975149311 3.75616083,0.0352581217 3.69390402,0.0352581217 L3.21660182,0.0352581217 C3.15434501,0.0352581217 3.0920882,0.0975149311 3.0920882,0.15977174 L2.98832685,4.72527109 C2.98832685,4.82903244 2.90531777,4.91204152 2.80155642,4.91204152 C2.73929961,4.91204152 2.6770428,4.91204152 2.61478599,4.91204152 C2.51102464,4.91204152 2.42801556,4.82903244 2.42801556,4.72527109 C2.40726329,3.85367576 2.32425422,0.15977174 2.32425422,0.15977174 C2.32425422,0.0975149311 2.26199741,0.0352581217 2.1997406,0.0352581217 L1.72243839,0.0352581217 C1.66018158,0.0352581217 1.59792477,0.0975149311 1.59792477,0.15977174 L1.49416342,4.72527109 C1.49416342,4.82903244 1.41115435,4.91204152 1.307393,4.91204152 C1.24513619,4.91204152 1.18287938,4.91204152 1.12062257,4.91204152 C1.01686122,4.91204152 0.93385214,4.82903244 0.93385214,4.72527109 C0.91309987,3.85367576 0.830090791,0.15977174 0.830090791,0.15977174 C0.830090791,0.0975149311 0.767833982,0.0352581217 0.705577173,0.0352581217 L0.228274968,0.0352581217 C0.166018158,0.0352581217 0.103761349,0.0975149311 0.103761349,0.15977174 L0,4.7875279 L0,4.7875279 L0,4.7875279 L0,5.36859146 C0,5.94965501 0.207522698,6.50996629 0.560311284,6.84200261 L1.32814527,7.58908432 L0.726329442,19.0858418 C0.705577173,19.4386304 0.996108949,19.7291621 1.32814527,19.7291621 L2.55252918,19.7291621 C2.90531777,19.7291621 3.17509728,19.4386304 3.17509728,19.0858418 L2.57328145,7.58908432 L3.32036316,6.86275488 C3.67315175,6.53071856 3.88067445,5.97040728 3.88067445,5.38934372 L3.92217899,4.7875279 L3.92217899,4.7875279 L3.92217899,4.7875279 Z" id="Path"></path>
                    <path d="M16,5.26483011 C16,3.16885086 14.8793774,0.0767626613 13.5097276,0.0767626613 C12.1400778,0.0767626613 11.0194553,3.16885086 11.0194553,5.26483011 C11.0194553,7.02877304 11.8080415,7.52682751 12.8871595,7.65134113 L12.2853437,19.0650895 C12.2645914,19.4178781 12.5551232,19.7084099 12.9079118,19.7084099 L14.1322957,19.7084099 C14.4850843,19.7084099 14.7548638,19.4178781 14.7548638,19.0650895 L14.153048,7.65134113 C15.2114137,7.52682751 16,7.02877304 16,5.26483011 Z" id="Path"></path>
                </g>
            </g>
        </g>
    </g>
</svg>